Coordinates
version=1
nRows=12
nColumns=24
inDegrees=yes

Units are S.I. units (second, meters, Newtons, ...)
Angles are in degrees.

endheader
time	pelvis_tilt	pelvis_list	pelvis_rotation	pelvis_tx	pelvis_ty	pelvis_tz	hip_flexion_r	hip_adduction_r	hip_rotation_r	knee_angle_r	ankle_angle_r	subtalar_angle_r	mtp_angle_r	hip_flexion_l	hip_adduction_l	hip_rotation_l	knee_angle_l	ankle_angle_l	subtalar_angle_l	mtp_angle_l	lumbar_extension	lumbar_bending	lumbar_rotation
      1.52033333	      0.51219901	      5.43039635	     -1.15237826	      0.45641886	      0.90968376	      0.28996749	     12.14698070	     -9.68045794	     -9.43384143	    -67.61063027	      7.57134962	      8.36102687	      8.39818216	      8.26187428	      9.88777251	      0.03877939	    -20.63262392	     11.35091772	     -7.65910653	      5.18493073	     -7.05931233	     -8.53880959	      3.59135572
      1.52450000	      0.61409038	      5.24621486	     -0.96356299	      0.46134974	      0.91103072	      0.28971961	     12.62320007	     -9.46530467	     -9.53717931	    -67.11082779	      8.05511406	      8.18581489	      8.13044826	      7.49659829	      9.73704089	      0.38033558	    -20.03981675	     11.21922074	     -7.75325112	      5.21035107	     -7.18803761	     -8.31605846	      3.17098154
      1.52866667	      0.74014161	      5.00992898	     -0.77117275	      0.46627462	      0.91240803	      0.28949093	     13.04401668	     -9.18172950	     -9.64920309	    -66.52147709	      8.45124976	      7.97992140	      7.99407767	      6.72232412	      9.51372198	      0.67555089	    -19.48830822	     11.18616199	     -7.75701756	      5.22249986	     -7.34069422	     -8.01414250	      2.91610497
      1.53283333	      0.86979346	      4.79534730	     -0.56935854	      0.47117454	      0.91375049	      0.28923651	     13.45308028	     -8.93089995	     -9.77315827	    -65.89703181	      8.83680818	      7.76925376	      7.84198968	      5.94001331	      9.31465802	      1.00473601	    -18.91328902	     11.09651057	     -7.81020849	      5.23266170	     -7.50458261	     -7.74049126	      2.55462392
      1.53700000	      0.99245229	      4.57842381	     -0.35862344	      0.47606119	      0.91504512	      0.28897289	     13.85595204	     -8.67968344	     -9.90719439	    -65.22468400	      9.19735690	      7.54530544	      7.68025621	      5.17248402	      9.10698652	      1.33918115	    -18.34480735	     11.00021634	     -7.86713444	      5.24207225	     -7.65706380	     -7.46214098	      2.18760845
      1.54116667	      1.12023359	      4.36181895	     -0.14051110	      0.48092428	      0.91630808	      0.28869763	     14.24100991	     -8.43247580	    -10.05192961	    -64.50607672	      9.52338577	      7.30467688	      7.51446077	      4.40568377	      8.89340870	      1.67177561	    -17.77909375	     10.89852419	     -7.93055125	      5.25017052	     -7.81791640	     -7.18132012	      1.82531382
      1.54533333	      1.22401752	      4.12208982	      0.09574794	      0.48574457	      0.91750218	      0.28842766	     14.63250797	     -8.15178530	    -10.20345903	    -63.72828466	      9.87379024	      7.04311957	      7.40852125	      3.70030267	      8.63912026	      1.96611547	    -17.27531967	     10.77251873	     -7.93916070	      5.25456883	     -7.96180038	     -6.87666511	      1.54572474
      1.54950000	      1.37671264	      3.91972343	      0.31337981	      0.49060804	      0.91871317	      0.28812775	     14.96516745	     -7.93343843	    -10.36156268	    -62.92053113	     10.07594743	      6.76644149	      7.23631524	      2.89617974	      8.43239265	      2.31997627	    -16.67588306	     10.69648834	     -8.03232665	      5.26255548	     -8.14202661	     -6.60035154	      1.09999393
      1.55366667	      1.49568804	      3.70443165	      0.54748010	      0.49542853	      0.91983482	      0.28784353	     15.31933022	     -7.69239103	    -10.52403532	    -62.06443041	     10.30593542	      6.47911422	      7.06068112	      2.16150344	      8.19798127	      2.64544287	    -16.13114779	     10.58919510	     -8.09358316	      5.27125327	     -8.28979831	     -6.31961341	      0.72071010
      1.55783333	      1.60552305	      3.51872107	      0.79083584	      0.50023289	      0.92088228	      0.28753160	     15.67558289	     -7.49600595	    -10.69664745	    -61.18683804	     10.56797584	      6.21090768	      6.65469122	      1.43258997	      7.99549349	      3.00841899	    -15.56497691	     10.40268668	     -8.24706535	      5.29443798	     -8.42329000	     -6.07683082	      0.21102865
      1.56200000	      1.72265537	      3.28869751	      1.01986625	      0.50502750	      0.92190952	      0.28727230	     16.00480506	     -7.23170015	    -10.85066580	    -60.23243878	     10.68715589	      5.85584285	      6.49027840	      0.72633457	      7.72260286	      3.26371601	    -15.06055018	     10.36310615	     -8.20134577	      5.30706429	     -8.56808404	     -5.76652520	     -0.02896273
      1.56616667	      1.84069956	      3.08180437	      1.25709321	      0.50981988	      0.92288255	      0.28700618	     16.31960547	     -6.99977608	    -11.01495006	    -59.24786664	     10.81371101	      5.50543884	      6.30625837	      0.01704786	      7.47022839	      3.53938433	    -14.54337267	     10.27205850	     -8.20148900	      5.32196009	     -8.71332118	     -5.49028553	     -0.40324291
